<svg xmlns="http://www.w3.org/2000/svg" width="48" height="48" viewBox="0 0 48 48" fill="none">
<mask id="mask0_1_33" style="mask-type:alpha" maskUnits="userSpaceOnUse" x="0" y="0" width="48" height="48" fill="#000000">
<rect width="48" height="48" fill="#D9D9D9"/>
</mask>
<g mask="url(#mask0_1_33)">
<path d="M9 42C8.2 42 7.5 41.7 6.9 41.1C6.3 40.5 6 39.8 6 39V9C6 8.2 6.3 7.5 6.9 6.9C7.5 6.3 8.2 6 9 6H32.1L42 15.9V39C42 39.8 41.7 40.5 41.1 41.1C40.5 41.7 39.8 42 39 42H9ZM9 39H39V17.5715H30.45V9H9V39ZM13.95 33.45H34.05V30.45H13.95V33.45ZM13.95 17.55H24V14.55H13.95V17.55ZM13.95 25.5H34.05V22.5H13.95V25.5Z" fill="#ffffff"/>
</g>
</svg>